<svg width="241" height="78" viewBox="0 0 241 78" fill="none" xmlns="http://www.w3.org/2000/svg">
<path d="M40.4571 37.264C40.4571 38.416 40.3851 39.616 40.2411 40.864H12.3771C12.5691 43.36 13.3611 45.28 14.7531 46.624C16.1931 47.92 17.9451 48.568 20.0091 48.568C23.0811 48.568 25.2171 47.272 26.4171 44.68H39.5211C38.8491 47.32 37.6251 49.696 35.8491 51.808C34.1211 53.92 31.9371 55.576 29.2971 56.776C26.6571 57.976 23.7051 58.576 20.4411 58.576C16.5051 58.576 13.0011 57.736 9.92909 56.056C6.85709 54.376 4.45709 51.976 2.72909 48.856C1.00109 45.736 0.137094 42.088 0.137094 37.912C0.137094 33.736 0.977094 30.088 2.65709 26.968C4.38509 23.848 6.78509 21.448 9.85709 19.768C12.9291 18.088 16.4571 17.248 20.4411 17.248C24.3291 17.248 27.7851 18.064 30.8091 19.696C33.8331 21.328 36.1851 23.656 37.8651 26.68C39.5931 29.704 40.4571 33.232 40.4571 37.264ZM27.8571 34.024C27.8571 31.912 27.1371 30.232 25.6971 28.984C24.2571 27.736 22.4571 27.112 20.2971 27.112C18.2331 27.112 16.4811 27.712 15.0411 28.912C13.6491 30.112 12.7851 31.816 12.4491 34.024H27.8571ZM70.7123 58L63.0083 46.84L56.5283 58H43.2083L56.4563 37.48L42.8483 17.824H56.6723L64.3763 28.912L70.8563 17.824H84.1763L70.7123 38.056L84.5363 58H70.7123ZM101.592 23.512C102.792 21.64 104.448 20.128 106.56 18.976C108.672 17.824 111.144 17.248 113.976 17.248C117.288 17.248 120.288 18.088 122.976 19.768C125.664 21.448 127.776 23.848 129.312 26.968C130.896 30.088 131.688 33.712 131.688 37.84C131.688 41.968 130.896 45.616 129.312 48.784C127.776 51.904 125.664 54.328 122.976 56.056C120.288 57.736 117.288 58.576 113.976 58.576C111.192 58.576 108.72 58 106.56 56.848C104.448 55.696 102.792 54.208 101.592 52.384V77.152H89.2804V17.824H101.592V23.512ZM119.16 37.84C119.16 34.768 118.296 32.368 116.568 30.64C114.888 28.864 112.8 27.976 110.304 27.976C107.856 27.976 105.768 28.864 104.04 30.64C102.36 32.416 101.52 34.84 101.52 37.912C101.52 40.984 102.36 43.408 104.04 45.184C105.768 46.96 107.856 47.848 110.304 47.848C112.752 47.848 114.84 46.96 116.568 45.184C118.296 43.36 119.16 40.912 119.16 37.84ZM144.34 13.648C142.18 13.648 140.404 13.024 139.012 11.776C137.668 10.48 136.996 8.896 136.996 7.024C136.996 5.104 137.668 3.52 139.012 2.272C140.404 0.975996 142.18 0.327996 144.34 0.327996C146.452 0.327996 148.18 0.975996 149.524 2.272C150.916 3.52 151.612 5.104 151.612 7.024C151.612 8.896 150.916 10.48 149.524 11.776C148.18 13.024 146.452 13.648 144.34 13.648ZM150.46 17.824V58H138.148V17.824H150.46ZM156.934 37.912C156.934 33.736 157.774 30.088 159.454 26.968C161.182 23.848 163.558 21.448 166.582 19.768C169.654 18.088 173.158 17.248 177.094 17.248C182.134 17.248 186.334 18.568 189.694 21.208C193.102 23.848 195.334 27.568 196.39 32.368H183.286C182.182 29.296 180.046 27.76 176.878 27.76C174.622 27.76 172.822 28.648 171.478 30.424C170.134 32.152 169.462 34.648 169.462 37.912C169.462 41.176 170.134 43.696 171.478 45.472C172.822 47.2 174.622 48.064 176.878 48.064C180.046 48.064 182.182 46.528 183.286 43.456H196.39C195.334 48.16 193.102 51.856 189.694 54.544C186.286 57.232 182.086 58.576 177.094 58.576C173.158 58.576 169.654 57.736 166.582 56.056C163.558 54.376 161.182 51.976 159.454 48.856C157.774 45.736 156.934 42.088 156.934 37.912ZM240.848 37.264C240.848 38.416 240.776 39.616 240.632 40.864H212.768C212.96 43.36 213.752 45.28 215.144 46.624C216.584 47.92 218.336 48.568 220.4 48.568C223.472 48.568 225.608 47.272 226.808 44.68H239.912C239.24 47.32 238.016 49.696 236.24 51.808C234.512 53.92 232.328 55.576 229.688 56.776C227.048 57.976 224.096 58.576 220.832 58.576C216.896 58.576 213.392 57.736 210.32 56.056C207.248 54.376 204.848 51.976 203.12 48.856C201.392 45.736 200.528 42.088 200.528 37.912C200.528 33.736 201.368 30.088 203.048 26.968C204.776 23.848 207.176 21.448 210.248 19.768C213.32 18.088 216.848 17.248 220.832 17.248C224.72 17.248 228.176 18.064 231.2 19.696C234.224 21.328 236.576 23.656 238.256 26.68C239.984 29.704 240.848 33.232 240.848 37.264ZM228.248 34.024C228.248 31.912 227.528 30.232 226.088 28.984C224.648 27.736 222.848 27.112 220.688 27.112C218.624 27.112 216.872 27.712 215.432 28.912C214.04 30.112 213.176 31.816 212.84 34.024H228.248Z" fill="#35CD8C"/>
</svg>
